<?xml version="1.0" encoding="UTF-8" standalone="no"?>
<!-- Created with Inkscape (http://www.inkscape.org/) -->

<svg
   version="1.1"
   id="svg1"
   width="70"
   height="47"
   viewBox="0 0 70 47"
   sodipodi:docname="logo.svg"
   inkscape:version="1.4.2 (2aeb623e1d, 2025-05-12)"
   xmlns:inkscape="http://www.inkscape.org/namespaces/inkscape"
   xmlns:sodipodi="http://sodipodi.sourceforge.net/DTD/sodipodi-0.dtd"
   xmlns="http://www.w3.org/2000/svg"
   xmlns:svg="http://www.w3.org/2000/svg">
  <defs
     id="defs1" />
  <sodipodi:namedview
     id="namedview1"
     pagecolor="#505050"
     bordercolor="#eeeeee"
     borderopacity="1"
     inkscape:showpageshadow="0"
     inkscape:pageopacity="0"
     inkscape:pagecheckerboard="0"
     inkscape:deskcolor="#505050"
     inkscape:zoom="17.510638"
     inkscape:cx="34.978736"
     inkscape:cy="23.5"
     inkscape:window-width="1920"
     inkscape:window-height="1073"
     inkscape:window-x="0"
     inkscape:window-y="0"
     inkscape:window-maximized="1"
     inkscape:current-layer="g1" />
  <g
     inkscape:groupmode="layer"
     inkscape:label="Image"
     id="g1">
    <path
       id="path1"
       style="fill:#ffffff;fill-opacity:1;stroke-width:1.01684"
       d="M 5.1972656,5.1972656 C 5.5504862,13.789445 5.5496079,13.846442 5.5496079,13.846442 H 15.08701 l 0.116776,29.156446 3.239535,-0.05681 L 37.6349,5.4264757 Z m 25.9082294,9.1702834 -6.535446,10.081238 -0.06242,-9.910801 z" />
    <path
       id="path10"
       style="fill:#ffffff;fill-opacity:1;stroke-width:1.01118"
       d="m 46.337891,4.7207584 c -3.248583,0.04847 -4.363282,0.7788387 -4.363282,0.7788387 l -2.513671,38.1890559 16.61914,-0.175738 c 0,0 7.766591,-1.402576 9.080078,-10.102935 C 66.473643,24.709621 55.28125,22.492259 55.28125,22.492259 l -7.310547,-3.854253 c 0,0 -3.026097,-2.568627 0.400391,-5.196251 3.426489,-2.627626 7.367187,3.384952 7.367187,3.384952 l 8.964844,0.117824 c 0,0 -0.114433,-9.2254876 -9.994141,-11.2691959 C 51.004094,4.9089444 48.28704,4.6916766 46.337891,4.7207584 Z m -3.279297,21.3901056 9.537109,2.979557 c 0,0 6.568569,2.509396 1.771485,7.005554 -4.797084,4.496158 -7.767579,-3.269126 -7.767579,-3.269126 L 43.058594,32.41746 Z" />
    <path
       id="path15"
       style="fill:#ffffff;fill-opacity:0.5107764"
       d="M 38.947266 5.3691406 L 37.931641 8.28125 L 39.832031 8.28125 L 40.660156 5.3691406 L 38.947266 5.3691406 z M 37.333984 9.9941406 L 36.140625 13.419922 L 38.369141 13.419922 L 39.34375 9.9941406 L 37.333984 9.9941406 z M 35.462891 15.361328 L 33.990234 19.587891 L 36.613281 19.587891 L 37.816406 15.361328 L 35.462891 15.361328 z M 32.955078 22.558594 L 30.505859 29.582031 L 33.769531 29.582031 L 35.767578 22.558594 L 32.955078 22.558594 z M 29.492188 32.494141 L 25.927734 42.716797 L 29.982422 42.888672 L 32.941406 32.494141 L 29.492188 32.494141 z " />
  </g>
</svg>
